<?xml version="1.0" encoding="UTF-8"?>
<svg xmlns="http://www.w3.org/2000/svg" xmlns:xlink="http://www.w3.org/1999/xlink" width="64px" height="64px" viewBox="0 0 64 64" version="1.1">
<g id="surface1">
<path style=" stroke:none;fill-rule:nonzero;fill:rgb(98.823529%,86.274511%,71.764708%);fill-opacity:1;" d="M 28.800781 14.71875 C 30.699219 14.71875 32.601562 14.71875 34.558594 14.71875 C 34.558594 14.929688 34.558594 15.140625 34.558594 15.359375 C 35.195312 15.359375 35.828125 15.359375 36.480469 15.359375 C 36.480469 15.570312 36.480469 15.78125 36.480469 16 C 36.902344 16 37.324219 16 37.761719 16 C 37.761719 16.210938 37.761719 16.421875 37.761719 16.640625 C 38.183594 16.640625 38.605469 16.640625 39.039062 16.640625 C 39.039062 16.851562 39.039062 17.0625 39.039062 17.28125 C 39.25 17.28125 39.460938 17.28125 39.679688 17.28125 C 39.679688 17.492188 39.679688 17.703125 39.679688 17.921875 C 39.890625 17.921875 40.101562 17.921875 40.320312 17.921875 C 40.320312 18.132812 40.320312 18.34375 40.320312 18.558594 C 40.53125 18.558594 40.742188 18.558594 40.960938 18.558594 C 40.960938 18.769531 40.960938 18.980469 40.960938 19.199219 C 41.171875 19.199219 41.382812 19.199219 41.601562 19.199219 C 41.601562 19.410156 41.601562 19.621094 41.601562 19.839844 C 41.8125 19.839844 42.023438 19.839844 42.238281 19.839844 C 42.238281 20.050781 42.238281 20.261719 42.238281 20.480469 C 42.453125 20.480469 42.664062 20.480469 42.878906 20.480469 C 42.878906 20.902344 42.878906 21.324219 42.878906 21.761719 C 43.089844 21.761719 43.300781 21.761719 43.519531 21.761719 C 43.519531 21.972656 43.519531 22.183594 43.519531 22.398438 C 43.730469 22.398438 43.941406 22.398438 44.160156 22.398438 C 44.160156 22.824219 44.160156 23.246094 44.160156 23.679688 C 44.371094 23.679688 44.582031 23.679688 44.800781 23.679688 C 44.800781 24.3125 44.800781 24.945312 44.800781 25.601562 C 45.011719 25.601562 45.222656 25.601562 45.441406 25.601562 C 45.441406 26.445312 45.441406 27.289062 45.441406 28.160156 C 45.652344 28.160156 45.863281 28.160156 46.078125 28.160156 C 46.078125 30.484375 46.078125 32.804688 46.078125 35.199219 C 45.867188 35.199219 45.65625 35.199219 45.441406 35.199219 C 45.441406 36.042969 45.441406 36.890625 45.441406 37.761719 C 45.230469 37.761719 45.019531 37.761719 44.800781 37.761719 C 44.800781 38.394531 44.800781 39.027344 44.800781 39.679688 C 44.589844 39.679688 44.378906 39.679688 44.160156 39.679688 C 44.160156 40.101562 44.160156 40.523438 44.160156 40.960938 C 43.949219 40.960938 43.738281 40.960938 43.519531 40.960938 C 43.519531 41.171875 43.519531 41.382812 43.519531 41.601562 C 43.308594 41.601562 43.097656 41.601562 42.878906 41.601562 C 42.878906 42.023438 42.878906 42.445312 42.878906 42.878906 C 42.667969 42.878906 42.457031 42.878906 42.238281 42.878906 C 42.238281 43.089844 42.238281 43.300781 42.238281 43.519531 C 42.027344 43.519531 41.816406 43.519531 41.601562 43.519531 C 41.601562 43.730469 41.601562 43.941406 41.601562 44.160156 C 41.390625 44.160156 41.175781 44.160156 40.960938 44.160156 C 40.960938 44.371094 40.960938 44.582031 40.960938 44.800781 C 40.75 44.800781 40.539062 44.800781 40.320312 44.800781 C 40.320312 45.011719 40.320312 45.222656 40.320312 45.441406 C 40.109375 45.441406 39.898438 45.441406 39.679688 45.441406 C 39.679688 45.652344 39.679688 45.863281 39.679688 46.078125 C 39.46875 46.078125 39.257812 46.078125 39.039062 46.078125 C 39.039062 46.292969 39.039062 46.503906 39.039062 46.71875 C 38.617188 46.71875 38.195312 46.71875 37.761719 46.71875 C 37.761719 46.929688 37.761719 47.140625 37.761719 47.359375 C 37.335938 47.359375 36.914062 47.359375 36.480469 47.359375 C 36.480469 47.570312 36.480469 47.78125 36.480469 48 C 35.847656 48 35.210938 48 34.558594 48 C 34.558594 48.210938 34.558594 48.421875 34.558594 48.640625 C 32.660156 48.640625 30.757812 48.640625 28.800781 48.640625 C 28.800781 48.429688 28.800781 48.21875 28.800781 48 C 28.167969 48 27.53125 48 26.878906 48 C 26.878906 47.789062 26.878906 47.578125 26.878906 47.359375 C 26.457031 47.359375 26.035156 47.359375 25.601562 47.359375 C 25.601562 47.148438 25.601562 46.9375 25.601562 46.71875 C 25.175781 46.71875 24.753906 46.71875 24.320312 46.71875 C 24.320312 46.507812 24.320312 46.296875 24.320312 46.078125 C 24.109375 46.078125 23.898438 46.078125 23.679688 46.078125 C 23.679688 45.867188 23.679688 45.65625 23.679688 45.441406 C 23.46875 45.441406 23.257812 45.441406 23.039062 45.441406 C 23.039062 45.230469 23.039062 45.019531 23.039062 44.800781 C 22.828125 44.800781 22.617188 44.800781 22.398438 44.800781 C 22.398438 44.589844 22.398438 44.378906 22.398438 44.160156 C 22.1875 44.160156 21.976562 44.160156 21.761719 44.160156 C 21.761719 43.949219 21.761719 43.738281 21.761719 43.519531 C 21.546875 43.519531 21.335938 43.519531 21.121094 43.519531 C 21.121094 43.308594 21.121094 43.097656 21.121094 42.878906 C 20.910156 42.878906 20.699219 42.878906 20.480469 42.878906 C 20.480469 42.457031 20.480469 42.035156 20.480469 41.601562 C 20.269531 41.601562 20.058594 41.601562 19.839844 41.601562 C 19.839844 41.390625 19.839844 41.175781 19.839844 40.960938 C 19.628906 40.960938 19.417969 40.960938 19.199219 40.960938 C 19.199219 40.539062 19.199219 40.113281 19.199219 39.679688 C 18.988281 39.679688 18.777344 39.679688 18.558594 39.679688 C 18.558594 39.046875 18.558594 38.414062 18.558594 37.761719 C 18.347656 37.761719 18.136719 37.761719 17.921875 37.761719 C 17.921875 36.914062 17.921875 36.070312 17.921875 35.199219 C 17.707031 35.199219 17.496094 35.199219 17.28125 35.199219 C 17.28125 32.875 17.28125 30.554688 17.28125 28.160156 C 17.492188 28.160156 17.703125 28.160156 17.921875 28.160156 C 17.921875 27.316406 17.921875 26.46875 17.921875 25.601562 C 18.132812 25.601562 18.34375 25.601562 18.558594 25.601562 C 18.558594 24.964844 18.558594 24.332031 18.558594 23.679688 C 18.769531 23.679688 18.980469 23.679688 19.199219 23.679688 C 19.199219 23.257812 19.199219 22.835938 19.199219 22.398438 C 19.410156 22.398438 19.621094 22.398438 19.839844 22.398438 C 19.839844 22.1875 19.839844 21.976562 19.839844 21.761719 C 20.050781 21.761719 20.261719 21.761719 20.480469 21.761719 C 20.480469 21.335938 20.480469 20.914062 20.480469 20.480469 C 20.691406 20.480469 20.902344 20.480469 21.121094 20.480469 C 21.121094 20.269531 21.121094 20.058594 21.121094 19.839844 C 21.332031 19.839844 21.542969 19.839844 21.761719 19.839844 C 21.761719 19.628906 21.761719 19.417969 21.761719 19.199219 C 21.972656 19.199219 22.183594 19.199219 22.398438 19.199219 C 22.398438 18.988281 22.398438 18.777344 22.398438 18.558594 C 22.609375 18.558594 22.824219 18.558594 23.039062 18.558594 C 23.039062 18.347656 23.039062 18.136719 23.039062 17.921875 C 23.25 17.921875 23.460938 17.921875 23.679688 17.921875 C 23.679688 17.707031 23.679688 17.496094 23.679688 17.28125 C 23.890625 17.28125 24.101562 17.28125 24.320312 17.28125 C 24.320312 17.070312 24.320312 16.859375 24.320312 16.640625 C 24.742188 16.640625 25.164062 16.640625 25.601562 16.640625 C 25.601562 16.429688 25.601562 16.21875 25.601562 16 C 26.023438 16 26.445312 16 26.878906 16 C 26.878906 15.789062 26.878906 15.578125 26.878906 15.359375 C 27.511719 15.359375 28.148438 15.359375 28.800781 15.359375 C 28.800781 15.148438 28.800781 14.9375 28.800781 14.71875 Z M 28.800781 14.71875 "/>
<path style=" stroke:none;fill-rule:nonzero;fill:rgb(79.607844%,60.000002%,55.29412%);fill-opacity:1;" d="M 20.480469 41.601562 C 20.691406 41.601562 20.902344 41.601562 21.121094 41.601562 C 21.121094 41.8125 21.121094 42.023438 21.121094 42.238281 C 21.332031 42.238281 21.542969 42.238281 21.761719 42.238281 C 21.761719 42.027344 21.761719 41.816406 21.761719 41.601562 C 21.972656 41.601562 22.183594 41.601562 22.398438 41.601562 C 22.398438 41.8125 22.398438 42.023438 22.398438 42.238281 C 22.824219 42.238281 23.246094 42.238281 23.679688 42.238281 C 23.679688 42.664062 23.679688 43.085938 23.679688 43.519531 C 23.890625 43.519531 24.101562 43.519531 24.320312 43.519531 C 24.320312 43.730469 24.320312 43.941406 24.320312 44.160156 C 24.53125 44.160156 24.742188 44.160156 24.960938 44.160156 C 24.960938 44.371094 24.960938 44.582031 24.960938 44.800781 C 25.171875 44.800781 25.382812 44.800781 25.601562 44.800781 C 25.601562 45.011719 25.601562 45.222656 25.601562 45.441406 C 25.8125 45.441406 26.023438 45.441406 26.238281 45.441406 C 26.238281 45.652344 26.238281 45.863281 26.238281 46.078125 C 26.453125 46.078125 26.664062 46.078125 26.878906 46.078125 C 26.878906 46.503906 26.878906 46.925781 26.878906 47.359375 C 26.457031 47.359375 26.035156 47.359375 25.601562 47.359375 C 25.601562 47.148438 25.601562 46.9375 25.601562 46.71875 C 25.175781 46.71875 24.753906 46.71875 24.320312 46.71875 C 24.320312 46.507812 24.320312 46.296875 24.320312 46.078125 C 24.109375 46.078125 23.898438 46.078125 23.679688 46.078125 C 23.679688 45.867188 23.679688 45.65625 23.679688 45.441406 C 23.46875 45.441406 23.257812 45.441406 23.039062 45.441406 C 23.039062 45.230469 23.039062 45.019531 23.039062 44.800781 C 22.828125 44.800781 22.617188 44.800781 22.398438 44.800781 C 22.398438 44.589844 22.398438 44.378906 22.398438 44.160156 C 22.1875 44.160156 21.976562 44.160156 21.761719 44.160156 C 21.761719 43.949219 21.761719 43.738281 21.761719 43.519531 C 21.546875 43.519531 21.335938 43.519531 21.121094 43.519531 C 21.121094 43.308594 21.121094 43.097656 21.121094 42.878906 C 20.910156 42.878906 20.699219 42.878906 20.480469 42.878906 C 20.480469 42.457031 20.480469 42.035156 20.480469 41.601562 Z M 20.480469 41.601562 "/>
<path style=" stroke:none;fill-rule:nonzero;fill:rgb(97.254902%,75.294119%,68.235296%);fill-opacity:1;" d="M 28.800781 14.71875 C 30.699219 14.71875 32.601562 14.71875 34.558594 14.71875 C 34.558594 14.929688 34.558594 15.140625 34.558594 15.359375 C 35.195312 15.359375 35.828125 15.359375 36.480469 15.359375 C 36.480469 15.570312 36.480469 15.78125 36.480469 16 C 36.902344 16 37.324219 16 37.761719 16 C 37.761719 16.210938 37.761719 16.421875 37.761719 16.640625 C 38.183594 16.640625 38.605469 16.640625 39.039062 16.640625 C 39.039062 16.851562 39.039062 17.0625 39.039062 17.28125 C 39.25 17.28125 39.460938 17.28125 39.679688 17.28125 C 39.679688 17.492188 39.679688 17.703125 39.679688 17.921875 C 39.890625 17.921875 40.101562 17.921875 40.320312 17.921875 C 40.320312 18.132812 40.320312 18.34375 40.320312 18.558594 C 39.898438 18.558594 39.476562 18.558594 39.039062 18.558594 C 39.039062 18.347656 39.039062 18.136719 39.039062 17.921875 C 38.40625 17.921875 37.773438 17.921875 37.121094 17.921875 C 37.121094 17.707031 37.121094 17.496094 37.121094 17.28125 C 36.699219 17.28125 36.273438 17.28125 35.839844 17.28125 C 35.839844 17.070312 35.839844 16.859375 35.839844 16.640625 C 35.207031 16.640625 34.574219 16.640625 33.921875 16.640625 C 33.921875 16.21875 33.921875 15.796875 33.921875 15.359375 C 32.230469 15.359375 30.539062 15.359375 28.800781 15.359375 C 28.800781 15.148438 28.800781 14.9375 28.800781 14.71875 Z M 28.800781 14.71875 "/>
<path style=" stroke:none;fill-rule:nonzero;fill:rgb(55.686277%,42.745098%,38.82353%);fill-opacity:1;" d="M 41.601562 41.601562 C 42.023438 41.601562 42.445312 41.601562 42.878906 41.601562 C 42.878906 42.023438 42.878906 42.445312 42.878906 42.878906 C 42.667969 42.878906 42.457031 42.878906 42.238281 42.878906 C 42.238281 43.089844 42.238281 43.300781 42.238281 43.519531 C 42.027344 43.519531 41.816406 43.519531 41.601562 43.519531 C 41.601562 43.730469 41.601562 43.941406 41.601562 44.160156 C 41.390625 44.160156 41.175781 44.160156 40.960938 44.160156 C 40.960938 44.371094 40.960938 44.582031 40.960938 44.800781 C 40.75 44.800781 40.539062 44.800781 40.320312 44.800781 C 40.320312 45.011719 40.320312 45.222656 40.320312 45.441406 C 40.109375 45.441406 39.898438 45.441406 39.679688 45.441406 C 39.679688 45.652344 39.679688 45.863281 39.679688 46.078125 C 39.46875 46.078125 39.257812 46.078125 39.039062 46.078125 C 39.039062 46.292969 39.039062 46.503906 39.039062 46.71875 C 38.617188 46.71875 38.195312 46.71875 37.761719 46.71875 C 37.761719 46.929688 37.761719 47.140625 37.761719 47.359375 C 37.335938 47.359375 36.914062 47.359375 36.480469 47.359375 C 36.480469 46.726562 36.480469 46.09375 36.480469 45.441406 C 36.902344 45.441406 37.324219 45.441406 37.761719 45.441406 C 37.761719 45.230469 37.761719 45.019531 37.761719 44.800781 C 38.183594 44.800781 38.605469 44.800781 39.039062 44.800781 C 39.039062 44.589844 39.039062 44.378906 39.039062 44.160156 C 39.25 44.160156 39.460938 44.160156 39.679688 44.160156 C 39.679688 43.949219 39.679688 43.738281 39.679688 43.519531 C 39.890625 43.519531 40.101562 43.519531 40.320312 43.519531 C 40.320312 43.308594 40.320312 43.097656 40.320312 42.878906 C 40.53125 42.878906 40.742188 42.878906 40.960938 42.878906 C 40.960938 42.667969 40.960938 42.457031 40.960938 42.238281 C 41.171875 42.238281 41.382812 42.238281 41.601562 42.238281 C 41.601562 42.027344 41.601562 41.816406 41.601562 41.601562 Z M 41.601562 41.601562 "/>
<path style=" stroke:none;fill-rule:nonzero;fill:rgb(93.725491%,74.509805%,66.274512%);fill-opacity:1;" d="M 23.679688 17.28125 C 23.890625 17.28125 24.101562 17.28125 24.320312 17.28125 C 24.320312 18.125 24.320312 18.96875 24.320312 19.839844 C 24.109375 19.839844 23.898438 19.839844 23.679688 19.839844 C 23.679688 20.050781 23.679688 20.261719 23.679688 20.480469 C 23.46875 20.480469 23.257812 20.480469 23.039062 20.480469 C 23.039062 20.691406 23.039062 20.902344 23.039062 21.121094 C 22.828125 21.121094 22.617188 21.121094 22.398438 21.121094 C 22.421875 21.3125 22.445312 21.507812 22.464844 21.707031 C 22.398438 22.398438 22.398438 22.398438 21.878906 22.90625 C 21.332031 23.253906 21.332031 23.253906 21.121094 23.253906 C 21.121094 22.761719 21.121094 22.269531 21.121094 21.761719 C 20.910156 21.761719 20.699219 21.761719 20.480469 21.761719 C 20.480469 21.335938 20.480469 20.914062 20.480469 20.480469 C 20.691406 20.480469 20.902344 20.480469 21.121094 20.480469 C 21.121094 20.269531 21.121094 20.058594 21.121094 19.839844 C 21.332031 19.839844 21.542969 19.839844 21.761719 19.839844 C 21.761719 19.628906 21.761719 19.417969 21.761719 19.199219 C 21.972656 19.199219 22.183594 19.199219 22.398438 19.199219 C 22.398438 18.988281 22.398438 18.777344 22.398438 18.558594 C 22.609375 18.558594 22.824219 18.558594 23.039062 18.558594 C 23.039062 18.347656 23.039062 18.136719 23.039062 17.921875 C 23.25 17.921875 23.460938 17.921875 23.679688 17.921875 C 23.679688 17.707031 23.679688 17.496094 23.679688 17.28125 Z M 23.679688 17.28125 "/>
<path style=" stroke:none;fill-rule:nonzero;fill:rgb(93.725491%,73.725492%,66.274512%);fill-opacity:1;" d="M 37.761719 44.800781 C 38.183594 44.800781 38.605469 44.800781 39.039062 44.800781 C 39.039062 45.433594 39.039062 46.066406 39.039062 46.71875 C 38.617188 46.71875 38.195312 46.71875 37.761719 46.71875 C 37.761719 46.929688 37.761719 47.140625 37.761719 47.359375 C 37.335938 47.359375 36.914062 47.359375 36.480469 47.359375 C 36.480469 46.726562 36.480469 46.09375 36.480469 45.441406 C 36.902344 45.441406 37.324219 45.441406 37.761719 45.441406 C 37.761719 45.230469 37.761719 45.019531 37.761719 44.800781 Z M 37.761719 44.800781 "/>
<path style=" stroke:none;fill-rule:nonzero;fill:rgb(86.666667%,76.862746%,63.529414%);fill-opacity:1;" d="M 39.894531 19.839844 C 40.246094 19.839844 40.597656 19.839844 40.960938 19.839844 C 40.960938 20.050781 40.960938 20.261719 40.960938 20.480469 C 41.171875 20.480469 41.382812 20.480469 41.601562 20.480469 C 41.601562 20.269531 41.601562 20.058594 41.601562 19.839844 C 41.8125 19.839844 42.023438 19.839844 42.238281 19.839844 C 42.238281 20.050781 42.238281 20.261719 42.238281 20.480469 C 42.453125 20.480469 42.664062 20.480469 42.878906 20.480469 C 42.878906 20.902344 42.878906 21.324219 42.878906 21.761719 C 42.667969 21.761719 42.457031 21.761719 42.238281 21.761719 C 42.238281 21.972656 42.238281 22.183594 42.238281 22.398438 C 41.816406 22.398438 41.394531 22.398438 40.960938 22.398438 C 40.960938 21.976562 40.960938 21.554688 40.960938 21.121094 C 40.75 21.121094 40.539062 21.121094 40.320312 21.121094 C 40.320312 20.910156 40.320312 20.699219 40.320312 20.480469 C 40.109375 20.480469 39.898438 20.480469 39.679688 20.480469 C 39.75 20.269531 39.820312 20.058594 39.894531 19.839844 Z M 39.894531 19.839844 "/>
<path style=" stroke:none;fill-rule:nonzero;fill:rgb(91.764706%,71.764708%,64.705884%);fill-opacity:1;" d="M 22.398438 19.839844 C 22.609375 19.839844 22.824219 19.839844 23.039062 19.839844 C 23.039062 20.261719 23.039062 20.683594 23.039062 21.121094 C 22.828125 21.121094 22.617188 21.121094 22.398438 21.121094 C 22.421875 21.3125 22.445312 21.507812 22.464844 21.707031 C 22.398438 22.398438 22.398438 22.398438 21.878906 22.90625 C 21.332031 23.253906 21.332031 23.253906 21.121094 23.253906 C 21.121094 22.761719 21.121094 22.269531 21.121094 21.761719 C 20.910156 21.761719 20.699219 21.761719 20.480469 21.761719 C 20.480469 21.335938 20.480469 20.914062 20.480469 20.480469 C 21.113281 20.480469 21.746094 20.480469 22.398438 20.480469 C 22.398438 20.269531 22.398438 20.058594 22.398438 19.839844 Z M 22.398438 19.839844 "/>
<path style=" stroke:none;fill-rule:nonzero;fill:rgb(0%,0%,0%);fill-opacity:1;" d="M 45.441406 28.160156 C 45.652344 28.160156 45.863281 28.160156 46.078125 28.160156 C 46.078125 30.484375 46.078125 32.804688 46.078125 35.199219 C 45.867188 35.199219 45.65625 35.199219 45.441406 35.199219 C 45.441406 32.875 45.441406 30.554688 45.441406 28.160156 Z M 45.441406 28.160156 "/>
<path style=" stroke:none;fill-rule:nonzero;fill:rgb(0%,0%,0%);fill-opacity:1;" d="M 17.28125 28.160156 C 17.492188 28.160156 17.703125 28.160156 17.921875 28.160156 C 17.921875 30.484375 17.921875 32.804688 17.921875 35.199219 C 17.707031 35.199219 17.496094 35.199219 17.28125 35.199219 C 17.28125 32.875 17.28125 30.554688 17.28125 28.160156 Z M 17.28125 28.160156 "/>
<path style=" stroke:none;fill-rule:nonzero;fill:rgb(98.431373%,74.117649%,68.235296%);fill-opacity:1;" d="M 36.480469 16.640625 C 37.324219 16.640625 38.167969 16.640625 39.039062 16.640625 C 39.039062 16.851562 39.039062 17.0625 39.039062 17.28125 C 39.25 17.28125 39.460938 17.28125 39.679688 17.28125 C 39.679688 17.492188 39.679688 17.703125 39.679688 17.921875 C 39.890625 17.921875 40.101562 17.921875 40.320312 17.921875 C 40.320312 18.132812 40.320312 18.34375 40.320312 18.558594 C 39.898438 18.558594 39.476562 18.558594 39.039062 18.558594 C 39.039062 18.347656 39.039062 18.136719 39.039062 17.921875 C 38.40625 17.921875 37.773438 17.921875 37.121094 17.921875 C 37.121094 17.707031 37.121094 17.496094 37.121094 17.28125 C 36.910156 17.28125 36.699219 17.28125 36.480469 17.28125 C 36.480469 17.070312 36.480469 16.859375 36.480469 16.640625 Z M 36.480469 16.640625 "/>
<path style=" stroke:none;fill-rule:nonzero;fill:rgb(0%,0%,0%);fill-opacity:1;" d="M 28.800781 48 C 30.699219 48 32.601562 48 34.558594 48 C 34.558594 48.210938 34.558594 48.421875 34.558594 48.640625 C 32.660156 48.640625 30.757812 48.640625 28.800781 48.640625 C 28.800781 48.429688 28.800781 48.21875 28.800781 48 Z M 28.800781 48 "/>
<path style=" stroke:none;fill-rule:nonzero;fill:rgb(0%,0%,0%);fill-opacity:1;" d="M 28.800781 14.71875 C 30.699219 14.71875 32.601562 14.71875 34.558594 14.71875 C 34.558594 14.929688 34.558594 15.140625 34.558594 15.359375 C 32.660156 15.359375 30.757812 15.359375 28.800781 15.359375 C 28.800781 15.148438 28.800781 14.9375 28.800781 14.71875 Z M 28.800781 14.71875 "/>
<path style=" stroke:none;fill-rule:nonzero;fill:rgb(61.56863%,47.450981%,43.137255%);fill-opacity:1;" d="M 41.601562 41.601562 C 42.023438 41.601562 42.445312 41.601562 42.878906 41.601562 C 42.878906 42.023438 42.878906 42.445312 42.878906 42.878906 C 42.667969 42.878906 42.457031 42.878906 42.238281 42.878906 C 42.238281 43.089844 42.238281 43.300781 42.238281 43.519531 C 42.027344 43.519531 41.816406 43.519531 41.601562 43.519531 C 41.601562 43.730469 41.601562 43.941406 41.601562 44.160156 C 41.390625 44.160156 41.175781 44.160156 40.960938 44.160156 C 40.960938 43.527344 40.960938 42.894531 40.960938 42.238281 C 41.171875 42.238281 41.382812 42.238281 41.601562 42.238281 C 41.601562 42.027344 41.601562 41.816406 41.601562 41.601562 Z M 41.601562 41.601562 "/>
<path style=" stroke:none;fill-rule:nonzero;fill:rgb(66.666669%,49.411765%,45.882353%);fill-opacity:1;" d="M 19.839844 21.761719 C 20.050781 21.761719 20.261719 21.761719 20.480469 21.761719 C 20.480469 22.394531 20.480469 23.027344 20.480469 23.679688 C 19.839844 23.894531 19.839844 23.894531 19.199219 23.679688 C 19.199219 23.257812 19.199219 22.835938 19.199219 22.398438 C 19.410156 22.398438 19.621094 22.398438 19.839844 22.398438 C 19.839844 22.1875 19.839844 21.976562 19.839844 21.761719 Z M 19.839844 21.761719 "/>
<path style=" stroke:none;fill-rule:nonzero;fill:rgb(31.37255%,23.529412%,21.568628%);fill-opacity:1;" d="M 22.398438 18.558594 C 22.609375 18.558594 22.824219 18.558594 23.039062 18.558594 C 23.039062 18.980469 23.039062 19.40625 23.039062 19.839844 C 22.828125 19.839844 22.617188 19.839844 22.398438 19.839844 C 22.398438 20.050781 22.398438 20.261719 22.398438 20.480469 C 21.976562 20.480469 21.554688 20.480469 21.121094 20.480469 C 21.121094 20.269531 21.121094 20.058594 21.121094 19.839844 C 21.332031 19.839844 21.542969 19.839844 21.761719 19.839844 C 21.761719 19.628906 21.761719 19.417969 21.761719 19.199219 C 21.972656 19.199219 22.183594 19.199219 22.398438 19.199219 C 22.398438 18.988281 22.398438 18.777344 22.398438 18.558594 Z M 22.398438 18.558594 "/>
<path style=" stroke:none;fill-rule:nonzero;fill:rgb(68.235296%,53.725493%,48.235294%);fill-opacity:1;" d="M 40.320312 42.878906 C 40.53125 42.878906 40.742188 42.878906 40.960938 42.878906 C 40.960938 43.511719 40.960938 44.148438 40.960938 44.800781 C 40.75 44.800781 40.539062 44.800781 40.320312 44.800781 C 40.320312 44.589844 40.320312 44.378906 40.320312 44.160156 C 40.109375 44.160156 39.898438 44.160156 39.679688 44.160156 C 39.679688 43.949219 39.679688 43.738281 39.679688 43.519531 C 39.890625 43.519531 40.101562 43.519531 40.320312 43.519531 C 40.320312 43.308594 40.320312 43.097656 40.320312 42.878906 Z M 40.320312 42.878906 "/>
<path style=" stroke:none;fill-rule:nonzero;fill:rgb(5.098039%,4.705882%,3.529412%);fill-opacity:1;" d="M 44.800781 35.199219 C 45.011719 35.199219 45.222656 35.199219 45.441406 35.199219 C 45.441406 36.042969 45.441406 36.890625 45.441406 37.761719 C 45.230469 37.761719 45.019531 37.761719 44.800781 37.761719 C 44.800781 36.914062 44.800781 36.070312 44.800781 35.199219 Z M 44.800781 35.199219 "/>
<path style=" stroke:none;fill-rule:nonzero;fill:rgb(0%,0%,0%);fill-opacity:1;" d="M 17.921875 35.199219 C 18.132812 35.199219 18.34375 35.199219 18.558594 35.199219 C 18.558594 36.042969 18.558594 36.890625 18.558594 37.761719 C 18.347656 37.761719 18.136719 37.761719 17.921875 37.761719 C 17.921875 36.914062 17.921875 36.070312 17.921875 35.199219 Z M 17.921875 35.199219 "/>
<path style=" stroke:none;fill-rule:nonzero;fill:rgb(0%,0%,0%);fill-opacity:1;" d="M 44.800781 25.601562 C 45.011719 25.601562 45.222656 25.601562 45.441406 25.601562 C 45.441406 26.445312 45.441406 27.289062 45.441406 28.160156 C 45.230469 28.160156 45.019531 28.160156 44.800781 28.160156 C 44.800781 27.316406 44.800781 26.46875 44.800781 25.601562 Z M 44.800781 25.601562 "/>
<path style=" stroke:none;fill-rule:nonzero;fill:rgb(0%,0%,0%);fill-opacity:1;" d="M 17.921875 25.601562 C 18.132812 25.601562 18.34375 25.601562 18.558594 25.601562 C 18.558594 26.445312 18.558594 27.289062 18.558594 28.160156 C 18.347656 28.160156 18.136719 28.160156 17.921875 28.160156 C 17.921875 27.316406 17.921875 26.46875 17.921875 25.601562 Z M 17.921875 25.601562 "/>
<path style=" stroke:none;fill-rule:nonzero;fill:rgb(89.803922%,69.01961%,62.7451%);fill-opacity:1;" d="M 20.480469 20.480469 C 20.691406 20.480469 20.902344 20.480469 21.121094 20.480469 C 21.121094 20.691406 21.121094 20.902344 21.121094 21.121094 C 21.332031 21.121094 21.542969 21.121094 21.761719 21.121094 C 21.761719 21.542969 21.761719 21.964844 21.761719 22.398438 C 21.546875 22.398438 21.335938 22.398438 21.121094 22.398438 C 21.121094 22.1875 21.121094 21.976562 21.121094 21.761719 C 20.910156 21.761719 20.699219 21.761719 20.480469 21.761719 C 20.480469 21.335938 20.480469 20.914062 20.480469 20.480469 Z M 20.480469 20.480469 "/>
<path style=" stroke:none;fill-rule:nonzero;fill:rgb(0%,0%,0%);fill-opacity:1;" d="M 34.558594 47.359375 C 35.195312 47.359375 35.828125 47.359375 36.480469 47.359375 C 36.480469 47.570312 36.480469 47.78125 36.480469 48 C 35.847656 48 35.210938 48 34.558594 48 C 34.558594 47.789062 34.558594 47.578125 34.558594 47.359375 Z M 34.558594 47.359375 "/>
<path style=" stroke:none;fill-rule:nonzero;fill:rgb(0%,0%,0%);fill-opacity:1;" d="M 26.878906 47.359375 C 27.511719 47.359375 28.148438 47.359375 28.800781 47.359375 C 28.800781 47.570312 28.800781 47.78125 28.800781 48 C 28.167969 48 27.53125 48 26.878906 48 C 26.878906 47.789062 26.878906 47.578125 26.878906 47.359375 Z M 26.878906 47.359375 "/>
<path style=" stroke:none;fill-rule:nonzero;fill:rgb(92.54902%,78.431374%,67.058825%);fill-opacity:1;" d="M 40.960938 40.960938 C 41.382812 40.960938 41.804688 40.960938 42.238281 40.960938 C 42.238281 41.171875 42.238281 41.382812 42.238281 41.601562 C 42.027344 41.601562 41.816406 41.601562 41.601562 41.601562 C 41.601562 41.8125 41.601562 42.023438 41.601562 42.238281 C 41.390625 42.238281 41.175781 42.238281 40.960938 42.238281 C 40.960938 41.816406 40.960938 41.394531 40.960938 40.960938 Z M 40.960938 40.960938 "/>
<path style=" stroke:none;fill-rule:nonzero;fill:rgb(2.745098%,2.745098%,2.352941%);fill-opacity:1;" d="M 44.160156 37.761719 C 44.371094 37.761719 44.582031 37.761719 44.800781 37.761719 C 44.800781 38.394531 44.800781 39.027344 44.800781 39.679688 C 44.589844 39.679688 44.378906 39.679688 44.160156 39.679688 C 44.160156 39.046875 44.160156 38.414062 44.160156 37.761719 Z M 44.160156 37.761719 "/>
<path style=" stroke:none;fill-rule:nonzero;fill:rgb(0%,0%,0%);fill-opacity:1;" d="M 18.558594 37.761719 C 18.769531 37.761719 18.980469 37.761719 19.199219 37.761719 C 19.199219 38.394531 19.199219 39.027344 19.199219 39.679688 C 18.988281 39.679688 18.777344 39.679688 18.558594 39.679688 C 18.558594 39.046875 18.558594 38.414062 18.558594 37.761719 Z M 18.558594 37.761719 "/>
<path style=" stroke:none;fill-rule:nonzero;fill:rgb(0%,0%,0%);fill-opacity:1;" d="M 44.160156 23.679688 C 44.371094 23.679688 44.582031 23.679688 44.800781 23.679688 C 44.800781 24.3125 44.800781 24.945312 44.800781 25.601562 C 44.589844 25.601562 44.378906 25.601562 44.160156 25.601562 C 44.160156 24.964844 44.160156 24.332031 44.160156 23.679688 Z M 44.160156 23.679688 "/>
<path style=" stroke:none;fill-rule:nonzero;fill:rgb(0%,0%,0%);fill-opacity:1;" d="M 18.558594 23.679688 C 18.769531 23.679688 18.980469 23.679688 19.199219 23.679688 C 19.199219 24.3125 19.199219 24.945312 19.199219 25.601562 C 18.988281 25.601562 18.777344 25.601562 18.558594 25.601562 C 18.558594 24.964844 18.558594 24.332031 18.558594 23.679688 Z M 18.558594 23.679688 "/>
<path style=" stroke:none;fill-rule:nonzero;fill:rgb(32.941177%,24.313726%,22.745098%);fill-opacity:1;" d="M 39.039062 17.28125 C 39.25 17.28125 39.460938 17.28125 39.679688 17.28125 C 39.679688 17.492188 39.679688 17.703125 39.679688 17.921875 C 39.890625 17.921875 40.101562 17.921875 40.320312 17.921875 C 40.320312 18.132812 40.320312 18.34375 40.320312 18.558594 C 39.898438 18.558594 39.476562 18.558594 39.039062 18.558594 C 39.039062 18.136719 39.039062 17.714844 39.039062 17.28125 Z M 39.039062 17.28125 "/>
<path style=" stroke:none;fill-rule:nonzero;fill:rgb(32.549021%,24.313726%,22.352941%);fill-opacity:1;" d="M 23.679688 17.28125 C 23.890625 17.28125 24.101562 17.28125 24.320312 17.28125 C 24.320312 17.703125 24.320312 18.125 24.320312 18.558594 C 23.898438 18.558594 23.476562 18.558594 23.039062 18.558594 C 23.039062 18.347656 23.039062 18.136719 23.039062 17.921875 C 23.25 17.921875 23.460938 17.921875 23.679688 17.921875 C 23.679688 17.707031 23.679688 17.496094 23.679688 17.28125 Z M 23.679688 17.28125 "/>
<path style=" stroke:none;fill-rule:nonzero;fill:rgb(0%,0%,0%);fill-opacity:1;" d="M 34.558594 15.359375 C 35.195312 15.359375 35.828125 15.359375 36.480469 15.359375 C 36.480469 15.570312 36.480469 15.78125 36.480469 16 C 35.847656 16 35.210938 16 34.558594 16 C 34.558594 15.789062 34.558594 15.578125 34.558594 15.359375 Z M 34.558594 15.359375 "/>
<path style=" stroke:none;fill-rule:nonzero;fill:rgb(0%,0%,0%);fill-opacity:1;" d="M 26.878906 15.359375 C 27.511719 15.359375 28.148438 15.359375 28.800781 15.359375 C 28.800781 15.570312 28.800781 15.78125 28.800781 16 C 28.167969 16 27.53125 16 26.878906 16 C 26.878906 15.789062 26.878906 15.578125 26.878906 15.359375 Z M 26.878906 15.359375 "/>
<path style=" stroke:none;fill-rule:nonzero;fill:rgb(94.509804%,83.137256%,68.627453%);fill-opacity:1;" d="M 43.519531 34.558594 C 43.941406 34.558594 44.363281 34.558594 44.800781 34.558594 C 44.800781 34.769531 44.800781 34.980469 44.800781 35.199219 C 44.378906 35.269531 43.957031 35.339844 43.519531 35.414062 C 43.519531 35.132812 43.519531 34.851562 43.519531 34.558594 Z M 43.519531 34.558594 "/>
<path style=" stroke:none;fill-rule:nonzero;fill:rgb(94.509804%,76.078433%,67.058825%);fill-opacity:1;" d="M 21.761719 21.761719 C 21.972656 21.761719 22.183594 21.761719 22.398438 21.761719 C 22.398438 21.972656 22.398438 22.183594 22.398438 22.398438 C 21.867188 22.867188 21.867188 22.867188 21.332031 23.253906 C 21.261719 22.972656 21.191406 22.691406 21.121094 22.398438 C 21.332031 22.398438 21.542969 22.398438 21.761719 22.398438 C 21.761719 22.1875 21.761719 21.976562 21.761719 21.761719 Z M 21.761719 21.761719 "/>
<path style=" stroke:none;fill-rule:nonzero;fill:rgb(0.784314%,0.784314%,0.784314%);fill-opacity:1;" d="M 36.480469 46.71875 C 36.902344 46.71875 37.324219 46.71875 37.761719 46.71875 C 37.761719 46.929688 37.761719 47.140625 37.761719 47.359375 C 37.335938 47.359375 36.914062 47.359375 36.480469 47.359375 C 36.480469 47.148438 36.480469 46.9375 36.480469 46.71875 Z M 36.480469 46.71875 "/>
<path style=" stroke:none;fill-rule:nonzero;fill:rgb(0%,0%,0%);fill-opacity:1;" d="M 25.601562 46.71875 C 26.023438 46.71875 26.445312 46.71875 26.878906 46.71875 C 26.878906 46.929688 26.878906 47.140625 26.878906 47.359375 C 26.457031 47.359375 26.035156 47.359375 25.601562 47.359375 C 25.601562 47.148438 25.601562 46.9375 25.601562 46.71875 Z M 25.601562 46.71875 "/>
<path style=" stroke:none;fill-rule:nonzero;fill:rgb(1.176471%,0.784314%,0.784314%);fill-opacity:1;" d="M 37.761719 46.078125 C 38.183594 46.078125 38.605469 46.078125 39.039062 46.078125 C 39.039062 46.292969 39.039062 46.503906 39.039062 46.71875 C 38.617188 46.71875 38.195312 46.71875 37.761719 46.71875 C 37.761719 46.507812 37.761719 46.296875 37.761719 46.078125 Z M 37.761719 46.078125 "/>
<path style=" stroke:none;fill-rule:nonzero;fill:rgb(0%,0%,0%);fill-opacity:1;" d="M 24.320312 46.078125 C 24.742188 46.078125 25.164062 46.078125 25.601562 46.078125 C 25.601562 46.292969 25.601562 46.503906 25.601562 46.71875 C 25.175781 46.71875 24.753906 46.71875 24.320312 46.71875 C 24.320312 46.507812 24.320312 46.296875 24.320312 46.078125 Z M 24.320312 46.078125 "/>
<path style=" stroke:none;fill-rule:nonzero;fill:rgb(1.176471%,0.784314%,0.784314%);fill-opacity:1;" d="M 42.238281 41.601562 C 42.453125 41.601562 42.664062 41.601562 42.878906 41.601562 C 42.878906 42.023438 42.878906 42.445312 42.878906 42.878906 C 42.667969 42.878906 42.457031 42.878906 42.238281 42.878906 C 42.238281 42.457031 42.238281 42.035156 42.238281 41.601562 Z M 42.238281 41.601562 "/>
<path style=" stroke:none;fill-rule:nonzero;fill:rgb(0%,0%,0%);fill-opacity:1;" d="M 20.480469 41.601562 C 20.691406 41.601562 20.902344 41.601562 21.121094 41.601562 C 21.121094 42.023438 21.121094 42.445312 21.121094 42.878906 C 20.910156 42.878906 20.699219 42.878906 20.480469 42.878906 C 20.480469 42.457031 20.480469 42.035156 20.480469 41.601562 Z M 20.480469 41.601562 "/>
<path style=" stroke:none;fill-rule:nonzero;fill:rgb(0%,0%,0%);fill-opacity:1;" d="M 43.519531 39.679688 C 43.730469 39.679688 43.941406 39.679688 44.160156 39.679688 C 44.160156 40.101562 44.160156 40.523438 44.160156 40.960938 C 43.949219 40.960938 43.738281 40.960938 43.519531 40.960938 C 43.519531 40.539062 43.519531 40.113281 43.519531 39.679688 Z M 43.519531 39.679688 "/>
<path style=" stroke:none;fill-rule:nonzero;fill:rgb(0%,0%,0%);fill-opacity:1;" d="M 19.199219 39.679688 C 19.410156 39.679688 19.621094 39.679688 19.839844 39.679688 C 19.839844 40.101562 19.839844 40.523438 19.839844 40.960938 C 19.628906 40.960938 19.417969 40.960938 19.199219 40.960938 C 19.199219 40.539062 19.199219 40.113281 19.199219 39.679688 Z M 19.199219 39.679688 "/>
<path style=" stroke:none;fill-rule:nonzero;fill:rgb(0%,0%,0%);fill-opacity:1;" d="M 43.519531 22.398438 C 43.730469 22.398438 43.941406 22.398438 44.160156 22.398438 C 44.160156 22.824219 44.160156 23.246094 44.160156 23.679688 C 43.949219 23.679688 43.738281 23.679688 43.519531 23.679688 C 43.519531 23.257812 43.519531 22.835938 43.519531 22.398438 Z M 43.519531 22.398438 "/>
<path style=" stroke:none;fill-rule:nonzero;fill:rgb(0%,0%,0%);fill-opacity:1;" d="M 19.199219 22.398438 C 19.410156 22.398438 19.621094 22.398438 19.839844 22.398438 C 19.839844 22.824219 19.839844 23.246094 19.839844 23.679688 C 19.628906 23.679688 19.417969 23.679688 19.199219 23.679688 C 19.199219 23.257812 19.199219 22.835938 19.199219 22.398438 Z M 19.199219 22.398438 "/>
<path style=" stroke:none;fill-rule:nonzero;fill:rgb(98.039216%,80.392158%,70.19608%);fill-opacity:1;" d="M 22.398438 21.121094 C 22.609375 21.121094 22.824219 21.121094 23.039062 21.121094 C 23.039062 21.542969 23.039062 21.964844 23.039062 22.398438 C 22.828125 22.398438 22.617188 22.398438 22.398438 22.398438 C 22.398438 21.976562 22.398438 21.554688 22.398438 21.121094 Z M 22.398438 21.121094 "/>
<path style=" stroke:none;fill-rule:nonzero;fill:rgb(0%,0%,0%);fill-opacity:1;" d="M 42.238281 20.480469 C 42.453125 20.480469 42.664062 20.480469 42.878906 20.480469 C 42.878906 20.902344 42.878906 21.324219 42.878906 21.761719 C 42.667969 21.761719 42.457031 21.761719 42.238281 21.761719 C 42.238281 21.335938 42.238281 20.914062 42.238281 20.480469 Z M 42.238281 20.480469 "/>
<path style=" stroke:none;fill-rule:nonzero;fill:rgb(1.176471%,0.784314%,0.784314%);fill-opacity:1;" d="M 20.480469 20.480469 C 20.691406 20.480469 20.902344 20.480469 21.121094 20.480469 C 21.121094 20.902344 21.121094 21.324219 21.121094 21.761719 C 20.910156 21.761719 20.699219 21.761719 20.480469 21.761719 C 20.480469 21.335938 20.480469 20.914062 20.480469 20.480469 Z M 20.480469 20.480469 "/>
<path style=" stroke:none;fill-rule:nonzero;fill:rgb(46.666667%,34.901962%,32.156864%);fill-opacity:1;" d="M 21.121094 19.839844 C 21.542969 19.839844 21.964844 19.839844 22.398438 19.839844 C 22.398438 20.050781 22.398438 20.261719 22.398438 20.480469 C 21.976562 20.480469 21.554688 20.480469 21.121094 20.480469 C 21.121094 20.269531 21.121094 20.058594 21.121094 19.839844 Z M 21.121094 19.839844 "/>
<path style=" stroke:none;fill-rule:nonzero;fill:rgb(0%,0%,0%);fill-opacity:1;" d="M 37.761719 16.640625 C 38.183594 16.640625 38.605469 16.640625 39.039062 16.640625 C 39.039062 16.851562 39.039062 17.0625 39.039062 17.28125 C 38.617188 17.28125 38.195312 17.28125 37.761719 17.28125 C 37.761719 17.070312 37.761719 16.859375 37.761719 16.640625 Z M 37.761719 16.640625 "/>
<path style=" stroke:none;fill-rule:nonzero;fill:rgb(0%,0%,0%);fill-opacity:1;" d="M 24.320312 16.640625 C 24.742188 16.640625 25.164062 16.640625 25.601562 16.640625 C 25.601562 16.851562 25.601562 17.0625 25.601562 17.28125 C 25.175781 17.28125 24.753906 17.28125 24.320312 17.28125 C 24.320312 17.070312 24.320312 16.859375 24.320312 16.640625 Z M 24.320312 16.640625 "/>
<path style=" stroke:none;fill-rule:nonzero;fill:rgb(0%,0%,0%);fill-opacity:1;" d="M 36.480469 16 C 36.902344 16 37.324219 16 37.761719 16 C 37.761719 16.210938 37.761719 16.421875 37.761719 16.640625 C 37.335938 16.640625 36.914062 16.640625 36.480469 16.640625 C 36.480469 16.429688 36.480469 16.21875 36.480469 16 Z M 36.480469 16 "/>
<path style=" stroke:none;fill-rule:nonzero;fill:rgb(0%,0%,0%);fill-opacity:1;" d="M 25.601562 16 C 26.023438 16 26.445312 16 26.878906 16 C 26.878906 16.210938 26.878906 16.421875 26.878906 16.640625 C 26.457031 16.640625 26.035156 16.640625 25.601562 16.640625 C 25.601562 16.429688 25.601562 16.21875 25.601562 16 Z M 25.601562 16 "/>
</g>
</svg>
